<svg class="main-svg" xmlns="http://www.w3.org/2000/svg" xmlns:xlink="http://www.w3.org/1999/xlink" width="350" height="300" style="" viewBox="0 0 700 600"><rect x="0" y="0" width="700" height="600" style="fill: rgb(255, 255, 255); fill-opacity: 1;"/><defs id="defs-747551"><g class="clips"><clipPath id="clip747551polar-for-traces"><path d="M269,0A269,269 0,0,0 -269,-3.29429988970638e-14L0,0Z" transform="translate(269,269)"/></clipPath></g><g class="gradients"/><g class="patterns"/></defs><g class="bglayer"/><g class="layer-below"><g class="imagelayer"/><g class="shapelayer"/></g><g class="cartesianlayer"/><g class="polarlayer"><g class="polar"><g class="polarsublayer draglayer"/><g class="polarsublayer plotbg"><path d="M269,0A269,269 0,0,0 -269,-3.29429988970638e-14L0,0Z" transform="translate(349,444.5)" style="fill: rgb(255, 255, 255); fill-opacity: 1;"/></g><g class="polarsublayer backplot"><g class="maplayer"/></g><g class="polarsublayer angular-grid" style="fill: none;"><path class="angularaxisgrid" d="M349,444.5L80,444.49999999999994" style="stroke: rgb(192, 192, 192); stroke-opacity: 1; stroke-width: 1px;"/><path class="angularaxisgrid" d="M349,444.5L82.69,406.5528802146988" style="stroke: rgb(192, 192, 192); stroke-opacity: 1; stroke-width: 1px;"/><path class="angularaxisgrid" d="M349,444.5L93.45000000000002,360.5047769215415" style="stroke: rgb(192, 192, 192); stroke-opacity: 1; stroke-width: 1px;"/><path class="angularaxisgrid" d="M349,444.5L106.9,327.24561841875584" style="stroke: rgb(192, 192, 192); stroke-opacity: 1; stroke-width: 1px;"/><path class="angularaxisgrid" d="M349,444.5L133.79999999999998,283.1" style="stroke: rgb(192, 192, 192); stroke-opacity: 1; stroke-width: 1px;"/><path class="angularaxisgrid" d="M349,444.5L160.70000000000005,252.39557527219728" style="stroke: rgb(192, 192, 192); stroke-opacity: 1; stroke-width: 1px;"/><path class="angularaxisgrid" d="M349,444.5L187.60000000000002,229.29999999999995" style="stroke: rgb(192, 192, 192); stroke-opacity: 1; stroke-width: 1px;"/><path class="angularaxisgrid" d="M349,444.5L241.40000000000003,197.95742761137578" style="stroke: rgb(192, 192, 192); stroke-opacity: 1; stroke-width: 1px;"/><path class="angularaxisgrid" d="M349,444.5L295.2,180.93490367653004" style="stroke: rgb(192, 192, 192); stroke-opacity: 1; stroke-width: 1px;"/><path class="angularaxisgrid" d="M349,444.5L349,175.5" style="stroke: rgb(192, 192, 192); stroke-opacity: 1; stroke-width: 1px;"/><path class="angularaxisgrid" d="M349,444.5L402.79999999999995,180.93490367653004" style="stroke: rgb(192, 192, 192); stroke-opacity: 1; stroke-width: 1px;"/><path class="angularaxisgrid" d="M349,444.5L456.6,197.9574276113758" style="stroke: rgb(192, 192, 192); stroke-opacity: 1; stroke-width: 1px;"/><path class="angularaxisgrid" d="M349,444.5L510.4,229.29999999999998" style="stroke: rgb(192, 192, 192); stroke-opacity: 1; stroke-width: 1px;"/><path class="angularaxisgrid" d="M349,444.5L537.3,252.39557527219733" style="stroke: rgb(192, 192, 192); stroke-opacity: 1; stroke-width: 1px;"/><path class="angularaxisgrid" d="M349,444.5L564.2,283.1" style="stroke: rgb(192, 192, 192); stroke-opacity: 1; stroke-width: 1px;"/><path class="angularaxisgrid" d="M349,444.5L591.1,327.2456184187559" style="stroke: rgb(192, 192, 192); stroke-opacity: 1; stroke-width: 1px;"/><path class="angularaxisgrid" d="M349,444.5L604.55,360.5047769215415" style="stroke: rgb(192, 192, 192); stroke-opacity: 1; stroke-width: 1px;"/><path class="angularaxisgrid" d="M349,444.5L615.31,406.55288021469875" style="stroke: rgb(192, 192, 192); stroke-opacity: 1; stroke-width: 1px;"/><path class="angularaxisgrid" d="M349,444.5L618,444.5" style="stroke: rgb(192, 192, 192); stroke-opacity: 1; stroke-width: 1px;"/></g><g class="polarsublayer radial-grid" transform="translate(349,444.5)" style="fill: none;"><path class="xgrid" d="M34.72,0A34.72,34.72 0,0,0 -34.72,-4.25197368663961e-15" style="stroke: rgb(192, 192, 192); stroke-opacity: 1; stroke-width: 1px;"/><path class="xgrid" d="M69.44,0A69.44,69.44 0,0,0 -69.44,-8.50394737327922e-15" style="stroke: rgb(192, 192, 192); stroke-opacity: 1; stroke-width: 1px;"/><path class="xgrid" d="M104.17,0A104.17,104.17 0,0,0 -104.17,-1.2757145706717979e-14" style="stroke: rgb(192, 192, 192); stroke-opacity: 1; stroke-width: 1px;"/><path class="xgrid" d="M138.89,0A138.89,138.89 0,0,0 -138.89,-1.7009119393357588e-14" style="stroke: rgb(192, 192, 192); stroke-opacity: 1; stroke-width: 1px;"/><path class="xgrid" d="M173.61,0A173.61,173.61 0,0,0 -173.61,-2.1261093079997202e-14" style="stroke: rgb(192, 192, 192); stroke-opacity: 1; stroke-width: 1px;"/><path class="xgrid" d="M208.33,0A208.33,208.33 0,0,0 -208.33,-2.551306676663681e-14" style="stroke: rgb(192, 192, 192); stroke-opacity: 1; stroke-width: 1px;"/><path class="xgrid" d="M243.05,0A243.05,243.05 0,0,0 -243.05,-2.976504045327642e-14" style="stroke: rgb(192, 192, 192); stroke-opacity: 1; stroke-width: 1px;"/></g><g class="polarsublayer angular-line"><path d="M269,0A269,269 0,0,0 -269,-3.29429988970638e-14L0,0Z" transform="translate(349,444.5)" stroke-width="1" style="fill: none; stroke: rgb(0, 0, 0); stroke-opacity: 1;"/></g><g class="polarsublayer radial-line"><line x1="0" y1="0" x2="269" y2="0" transform="translate(349,444.5)" stroke-width="1" style="fill: none; stroke: rgb(0, 0, 0); stroke-opacity: 1;"/></g><g class="polarsublayer angular-axis"><path class="angularaxistick ticks" d="M0.5,0h5" transform="translate(80,444.49999999999994)rotate(-180)" style="stroke: rgb(0, 0, 0); stroke-opacity: 1; stroke-width: 2px;"/><path class="angularaxistick ticks" d="M0.5,0h5" transform="translate(82.69,406.5528802146988)rotate(-171.89038554400582)" style="stroke: rgb(0, 0, 0); stroke-opacity: 1; stroke-width: 2px;"/><path class="angularaxistick ticks" d="M0.5,0h5" transform="translate(93.45000000000002,360.5047769215415)rotate(-161.80512766123323)" style="stroke: rgb(0, 0, 0); stroke-opacity: 1; stroke-width: 2px;"/><path class="angularaxistick ticks" d="M0.5,0h5" transform="translate(106.9,327.24561841875584)rotate(-154.15806723683286)" style="stroke: rgb(0, 0, 0); stroke-opacity: 1; stroke-width: 2px;"/><path class="angularaxistick ticks" d="M0.5,0h5" transform="translate(133.79999999999998,283.1)rotate(-143.13010235415598)" style="stroke: rgb(0, 0, 0); stroke-opacity: 1; stroke-width: 2px;"/><path class="angularaxistick ticks" d="M0.5,0h5" transform="translate(160.70000000000005,252.39557527219728)rotate(-134.42700400080568)" style="stroke: rgb(0, 0, 0); stroke-opacity: 1; stroke-width: 2px;"/><path class="angularaxistick ticks" d="M0.5,0h5" transform="translate(187.60000000000002,229.29999999999995)rotate(-126.86989764584402)" style="stroke: rgb(0, 0, 0); stroke-opacity: 1; stroke-width: 2px;"/><path class="angularaxistick ticks" d="M0.5,0h5" transform="translate(241.40000000000003,197.95742761137578)rotate(-113.57817847820182)" style="stroke: rgb(0, 0, 0); stroke-opacity: 1; stroke-width: 2px;"/><path class="angularaxistick ticks" d="M0.5,0h5" transform="translate(295.2,180.93490367653004)rotate(-101.5369590328155)" style="stroke: rgb(0, 0, 0); stroke-opacity: 1; stroke-width: 2px;"/><path class="angularaxistick ticks" d="M0.5,0h5" transform="translate(349,175.5)rotate(-90)" style="stroke: rgb(0, 0, 0); stroke-opacity: 1; stroke-width: 2px;"/><path class="angularaxistick ticks" d="M0.5,0h5" transform="translate(402.79999999999995,180.93490367653004)rotate(-78.46304096718453)" style="stroke: rgb(0, 0, 0); stroke-opacity: 1; stroke-width: 2px;"/><path class="angularaxistick ticks" d="M0.5,0h5" transform="translate(456.6,197.9574276113758)rotate(-66.42182152179817)" style="stroke: rgb(0, 0, 0); stroke-opacity: 1; stroke-width: 2px;"/><path class="angularaxistick ticks" d="M0.5,0h5" transform="translate(510.4,229.29999999999998)rotate(-53.13010235415599)" style="stroke: rgb(0, 0, 0); stroke-opacity: 1; stroke-width: 2px;"/><path class="angularaxistick ticks" d="M0.5,0h5" transform="translate(537.3,252.39557527219733)rotate(-45.5729959991943)" style="stroke: rgb(0, 0, 0); stroke-opacity: 1; stroke-width: 2px;"/><path class="angularaxistick ticks" d="M0.5,0h5" transform="translate(564.2,283.1)rotate(-36.86989764584401)" style="stroke: rgb(0, 0, 0); stroke-opacity: 1; stroke-width: 2px;"/><path class="angularaxistick ticks" d="M0.5,0h5" transform="translate(591.1,327.2456184187559)rotate(-25.841932763167126)" style="stroke: rgb(0, 0, 0); stroke-opacity: 1; stroke-width: 2px;"/><path class="angularaxistick ticks" d="M0.5,0h5" transform="translate(604.55,360.5047769215415)rotate(-18.194872338766785)" style="stroke: rgb(0, 0, 0); stroke-opacity: 1; stroke-width: 2px;"/><path class="angularaxistick ticks" d="M0.5,0h5" transform="translate(615.31,406.55288021469875)rotate(-8.109614455994183)" style="stroke: rgb(0, 0, 0); stroke-opacity: 1; stroke-width: 2px;"/><path class="angularaxistick ticks" d="M0.5,0h5" transform="translate(618,444.5)" style="stroke: rgb(0, 0, 0); stroke-opacity: 1; stroke-width: 2px;"/><g class="angularaxistick"><text text-anchor="end" x="-7.9" y="4.199999999999998" transform="translate(80,444.49999999999994)" style="font-family: 'Open Sans', verdana, arial, sans-serif; font-size: 12px; fill: rgb(64, 64, 64); fill-opacity: 1; white-space: pre; opacity: 1;">-1</text></g><g class="angularaxistick"><text text-anchor="end" x="-7.821000000000001" y="2.7050061940944135" transform="translate(82.69,406.5528802146988)" style="font-family: 'Open Sans', verdana, arial, sans-serif; font-size: 12px; fill: rgb(64, 64, 64); fill-opacity: 1; white-space: pre; opacity: 1;">-0.99</text></g><g class="angularaxistick"><text text-anchor="end" x="-7.505" y="0.7738260308248233" transform="translate(93.45000000000002,360.5047769215415)" style="font-family: 'Open Sans', verdana, arial, sans-serif; font-size: 12px; fill: rgb(64, 64, 64); fill-opacity: 1; white-space: pre; opacity: 1;">-0.95</text></g><g class="angularaxistick"><text text-anchor="end" x="-7.11" y="-0.7096659118468951" transform="translate(106.9,327.24561841875584)" style="font-family: 'Open Sans', verdana, arial, sans-serif; font-size: 12px; fill: rgb(64, 64, 64); fill-opacity: 1; white-space: pre; opacity: 1;">-0.9</text></g><g class="angularaxistick"><text text-anchor="end" x="-6.32" y="-2.820000000000001" transform="translate(133.79999999999998,283.1)" style="font-family: 'Open Sans', verdana, arial, sans-serif; font-size: 12px; fill: rgb(64, 64, 64); fill-opacity: 1; white-space: pre; opacity: 1;">-0.8</text></g><g class="angularaxistick"><text text-anchor="end" x="-5.529999999999999" y="-4.415671281399138" transform="translate(160.70000000000005,252.39557527219728)" style="font-family: 'Open Sans', verdana, arial, sans-serif; font-size: 12px; fill: rgb(64, 64, 64); fill-opacity: 1; white-space: pre; opacity: 1;">-0.7</text></g><g class="angularaxistick"><text text-anchor="end" x="-4.739999999999999" y="-5.720000000000002" transform="translate(187.60000000000002,229.29999999999995)" style="font-family: 'Open Sans', verdana, arial, sans-serif; font-size: 12px; fill: rgb(64, 64, 64); fill-opacity: 1; white-space: pre; opacity: 1;">-0.6</text></g><g class="angularaxistick"><text text-anchor="end" x="-3.1599999999999984" y="-7.760105931609034" transform="translate(241.40000000000003,197.95742761137578)" style="font-family: 'Open Sans', verdana, arial, sans-serif; font-size: 12px; fill: rgb(64, 64, 64); fill-opacity: 1; white-space: pre; opacity: 1;">-0.4</text></g><g class="angularaxistick"><text text-anchor="end" x="-1.5800000000000003" y="-9.251897740266694" transform="translate(295.2,180.93490367653004)" style="font-family: 'Open Sans', verdana, arial, sans-serif; font-size: 12px; fill: rgb(64, 64, 64); fill-opacity: 1; white-space: pre; opacity: 1;">-0.2</text></g><g class="angularaxistick"><text text-anchor="middle" x="4.837354856632045e-16" y="-10.3" transform="translate(349,175.5)" style="font-family: 'Open Sans', verdana, arial, sans-serif; font-size: 12px; fill: rgb(64, 64, 64); fill-opacity: 1; white-space: pre; opacity: 1;">0</text></g><g class="angularaxistick"><text text-anchor="start" x="1.5799999999999994" y="-9.251897740266694" transform="translate(402.79999999999995,180.93490367653004)" style="font-family: 'Open Sans', verdana, arial, sans-serif; font-size: 12px; fill: rgb(64, 64, 64); fill-opacity: 1; white-space: pre; opacity: 1;">0.2</text></g><g class="angularaxistick"><text text-anchor="start" x="3.1600000000000006" y="-7.760105931609031" transform="translate(456.6,197.9574276113758)" style="font-family: 'Open Sans', verdana, arial, sans-serif; font-size: 12px; fill: rgb(64, 64, 64); fill-opacity: 1; white-space: pre; opacity: 1;">0.4</text></g><g class="angularaxistick"><text text-anchor="start" x="4.74" y="-5.720000000000001" transform="translate(510.4,229.29999999999998)" style="font-family: 'Open Sans', verdana, arial, sans-serif; font-size: 12px; fill: rgb(64, 64, 64); fill-opacity: 1; white-space: pre; opacity: 1;">0.6</text></g><g class="angularaxistick"><text text-anchor="start" x="5.53" y="-4.415671281399137" transform="translate(537.3,252.39557527219733)" style="font-family: 'Open Sans', verdana, arial, sans-serif; font-size: 12px; fill: rgb(64, 64, 64); fill-opacity: 1; white-space: pre; opacity: 1;">0.7</text></g><g class="angularaxistick"><text text-anchor="start" x="6.32" y="-2.8199999999999994" transform="translate(564.2,283.1)" style="font-family: 'Open Sans', verdana, arial, sans-serif; font-size: 12px; fill: rgb(64, 64, 64); fill-opacity: 1; white-space: pre; opacity: 1;">0.8</text></g><g class="angularaxistick"><text text-anchor="start" x="7.11" y="-0.7096659118468942" transform="translate(591.1,327.2456184187559)" style="font-family: 'Open Sans', verdana, arial, sans-serif; font-size: 12px; fill: rgb(64, 64, 64); fill-opacity: 1; white-space: pre; opacity: 1;">0.9</text></g><g class="angularaxistick"><text text-anchor="start" x="7.505" y="0.7738260308248228" transform="translate(604.55,360.5047769215415)" style="font-family: 'Open Sans', verdana, arial, sans-serif; font-size: 12px; fill: rgb(64, 64, 64); fill-opacity: 1; white-space: pre; opacity: 1;">0.95</text></g><g class="angularaxistick"><text text-anchor="start" x="7.821000000000001" y="2.7050061940944126" transform="translate(615.31,406.55288021469875)" style="font-family: 'Open Sans', verdana, arial, sans-serif; font-size: 12px; fill: rgb(64, 64, 64); fill-opacity: 1; white-space: pre; opacity: 1;">0.99</text></g><g class="angularaxistick"><text text-anchor="start" x="7.9" y="4.199999999999999" transform="translate(618,444.5)" style="font-family: 'Open Sans', verdana, arial, sans-serif; font-size: 12px; fill: rgb(64, 64, 64); fill-opacity: 1; white-space: pre; opacity: 1;">1</text></g></g><g class="polarsublayer radial-axis" transform="translate(349,444.5)"><path class="xtick ticks" d="M0,0.5v5" transform="" style="stroke: rgb(0, 0, 0); stroke-opacity: 1; stroke-width: 2px;"/><path class="xtick ticks" d="M0,0.5v5" transform="translate(34.72,0)" style="stroke: rgb(0, 0, 0); stroke-opacity: 1; stroke-width: 2px;"/><path class="xtick ticks" d="M0,0.5v5" transform="translate(69.44,0)" style="stroke: rgb(0, 0, 0); stroke-opacity: 1; stroke-width: 2px;"/><path class="xtick ticks" d="M0,0.5v5" transform="translate(104.17,0)" style="stroke: rgb(0, 0, 0); stroke-opacity: 1; stroke-width: 2px;"/><path class="xtick ticks" d="M0,0.5v5" transform="translate(138.89,0)" style="stroke: rgb(0, 0, 0); stroke-opacity: 1; stroke-width: 2px;"/><path class="xtick ticks" d="M0,0.5v5" transform="translate(173.61,0)" style="stroke: rgb(0, 0, 0); stroke-opacity: 1; stroke-width: 2px;"/><path class="xtick ticks" d="M0,0.5v5" transform="translate(208.33,0)" style="stroke: rgb(0, 0, 0); stroke-opacity: 1; stroke-width: 2px;"/><path class="xtick ticks" d="M0,0.5v5" transform="translate(243.05,0)" style="stroke: rgb(0, 0, 0); stroke-opacity: 1; stroke-width: 2px;"/><g class="xtick"><text text-anchor="middle" x="0" y="19.9" transform="" style="font-family: 'Open Sans', verdana, arial, sans-serif; font-size: 12px; fill: rgb(64, 64, 64); fill-opacity: 1; white-space: pre; opacity: 1;">0</text></g><g class="xtick"><text text-anchor="middle" x="0" y="19.9" transform="translate(34.72,0)" style="font-family: 'Open Sans', verdana, arial, sans-serif; font-size: 12px; fill: rgb(64, 64, 64); fill-opacity: 1; white-space: pre; opacity: 1;">0.5</text></g><g class="xtick"><text text-anchor="middle" x="0" y="19.9" transform="translate(69.44,0)" style="font-family: 'Open Sans', verdana, arial, sans-serif; font-size: 12px; fill: rgb(64, 64, 64); fill-opacity: 1; white-space: pre; opacity: 1;">1</text></g><g class="xtick"><text text-anchor="middle" x="0" y="19.9" transform="translate(104.17,0)" style="font-family: 'Open Sans', verdana, arial, sans-serif; font-size: 12px; fill: rgb(64, 64, 64); fill-opacity: 1; white-space: pre; opacity: 1;">1.5</text></g><g class="xtick"><text text-anchor="middle" x="0" y="19.9" transform="translate(138.89,0)" style="font-family: 'Open Sans', verdana, arial, sans-serif; font-size: 12px; fill: rgb(64, 64, 64); fill-opacity: 1; white-space: pre; opacity: 1;">2</text></g><g class="xtick"><text text-anchor="middle" x="0" y="19.9" transform="translate(173.61,0)" style="font-family: 'Open Sans', verdana, arial, sans-serif; font-size: 12px; fill: rgb(64, 64, 64); fill-opacity: 1; white-space: pre; opacity: 1;">2.5</text></g><g class="xtick"><text text-anchor="middle" x="0" y="19.9" transform="translate(208.33,0)" style="font-family: 'Open Sans', verdana, arial, sans-serif; font-size: 12px; fill: rgb(64, 64, 64); fill-opacity: 1; white-space: pre; opacity: 1;">3</text></g><g class="xtick"><text text-anchor="middle" x="0" y="19.9" transform="translate(243.05,0)" style="font-family: 'Open Sans', verdana, arial, sans-serif; font-size: 12px; fill: rgb(64, 64, 64); fill-opacity: 1; white-space: pre; opacity: 1;">3.5</text></g></g><g class="polarsublayer frontplot" transform="translate(80,175.5)"><g class="barlayer"/><g class="scatterlayer"><g class="trace scatter trace2b9076" style="stroke-miterlimit: 2; opacity: 1;"><g class="fills" clip-path="url(#clip747551polar-for-traces)"/><g class="errorbars"/><g class="lines"/><g class="points"><path class="point plotly-customdata" transform="translate(203.21,151.67)" d="M5,0A5,5 0 1,1 0,-5A5,5 0 0,1 5,0Z" style="opacity: 1; stroke-width: 2px; fill: rgb(31, 119, 180); fill-opacity: 0.6; stroke: rgb(31, 119, 180); stroke-opacity: 1;"/></g><g class="text"/></g><g class="trace scatter trace3ab76e" style="stroke-miterlimit: 2; opacity: 1;"><g class="fills" clip-path="url(#clip747551polar-for-traces)"/><g class="errorbars"/><g class="lines"/><g class="points"><path class="point plotly-customdata" transform="translate(204.69,150.85)" d="M5,0A5,5 0 1,1 0,-5A5,5 0 0,1 5,0Z" style="opacity: 1; stroke-width: 2px; fill: rgb(44, 160, 44); fill-opacity: 0.6; stroke: rgb(44, 160, 44); stroke-opacity: 1;"/></g><g class="text"/></g><g class="trace scatter tracead8890" style="stroke-miterlimit: 2; opacity: 1;"><g class="fills" clip-path="url(#clip747551polar-for-traces)"/><g class="errorbars"/><g class="lines"/><g class="points"><path class="point plotly-customdata" transform="translate(248.1,136.2)" d="M5,0A5,5 0 1,1 0,-5A5,5 0 0,1 5,0Z" style="opacity: 1; stroke-width: 2px; fill: rgb(127, 127, 127); fill-opacity: 0.6; stroke: rgb(127, 127, 127); stroke-opacity: 1;"/></g><g class="text"/></g><g class="trace scatter tracee9482c" style="stroke-miterlimit: 2; opacity: 1;"><g class="fills" clip-path="url(#clip747551polar-for-traces)"/><g class="errorbars"/><g class="lines"/><g class="points"><path class="point plotly-customdata" transform="translate(403.45,269)" d="M5,0A5,5 0 1,1 0,-5A5,5 0 0,1 5,0Z" style="opacity: 1; stroke-width: 2px; fill: rgb(0, 0, 0); fill-opacity: 0.6; stroke: rgb(0, 0, 0); stroke-opacity: 1;"/></g><g class="text"/></g></g></g></g></g><g class="smithlayer"/><g class="ternarylayer"/><g class="geolayer"/><g class="funnelarealayer"/><g class="pielayer"/><g class="iciclelayer"/><g class="treemaplayer"/><g class="sunburstlayer"/><g class="glimages"/><defs id="topdefs-747551"><g class="clips"/><clipPath id="legend747551"><rect width="58.6" height="104.6" x="0.2" y="0.2"/></clipPath></defs><g class="layer-above"><g class="imagelayer"/><g class="shapelayer"/></g><g class="infolayer"><g class="legend" pointer-events="all" transform="translate(628.76,100)"><rect class="bg" shape-rendering="crispEdges" width="58.8" height="104.8" x="0.1" y="0.1" style="stroke: rgb(192, 192, 192); stroke-opacity: 1; fill: rgb(255, 255, 255); fill-opacity: 1; stroke-width: 0.2px;"/><g class="scrollbox" transform="" clip-path="url(#legend747551)"><text class="legendtitletext" text-anchor="start" x="2.2" y="18.4" style="font-family: 'Open Sans', verdana, arial, sans-serif; font-size: 14px; fill: rgb(64, 64, 64); fill-opacity: 1; white-space: pre;">Model</text><g class="groups"><g class="traces" transform="translate(0.2,32.9)" style="opacity: 1;"><text class="legendtext" text-anchor="start" x="40" y="4.680000000000001" style="font-family: 'Open Sans', verdana, arial, sans-serif; font-size: 12px; fill: rgb(64, 64, 64); fill-opacity: 1; white-space: pre;">y1</text><g class="layers" style="opacity: 1;"><g class="legendfill"/><g class="legendlines"/><g class="legendsymbols"><g class="legendpoints"><path class="scatterpts" transform="translate(20,0)" d="M5,0A5,5 0 1,1 0,-5A5,5 0 0,1 5,0Z" style="opacity: 1; stroke-width: 2px; fill: rgb(31, 119, 180); fill-opacity: 0.6; stroke: rgb(31, 119, 180); stroke-opacity: 1;"/></g></g></g><rect class="legendtoggle" x="0" y="-9.5" width="53" height="19" style="fill: rgb(0, 0, 0); fill-opacity: 0;"/></g><g class="traces" transform="translate(0.2,51.9)" style="opacity: 1;"><text class="legendtext" text-anchor="start" x="40" y="4.680000000000001" style="font-family: 'Open Sans', verdana, arial, sans-serif; font-size: 12px; fill: rgb(64, 64, 64); fill-opacity: 1; white-space: pre;">y2</text><g class="layers" style="opacity: 1;"><g class="legendfill"/><g class="legendlines"/><g class="legendsymbols"><g class="legendpoints"><path class="scatterpts" transform="translate(20,0)" d="M5,0A5,5 0 1,1 0,-5A5,5 0 0,1 5,0Z" style="opacity: 1; stroke-width: 2px; fill: rgb(44, 160, 44); fill-opacity: 0.6; stroke: rgb(44, 160, 44); stroke-opacity: 1;"/></g></g></g><rect class="legendtoggle" x="0" y="-9.5" width="53" height="19" style="fill: rgb(0, 0, 0); fill-opacity: 0;"/></g><g class="traces" transform="translate(0.2,70.9)" style="opacity: 1;"><text class="legendtext" text-anchor="start" x="40" y="4.680000000000001" style="font-family: 'Open Sans', verdana, arial, sans-serif; font-size: 12px; fill: rgb(64, 64, 64); fill-opacity: 1; white-space: pre;">y3</text><g class="layers" style="opacity: 1;"><g class="legendfill"/><g class="legendlines"/><g class="legendsymbols"><g class="legendpoints"><path class="scatterpts" transform="translate(20,0)" d="M5,0A5,5 0 1,1 0,-5A5,5 0 0,1 5,0Z" style="opacity: 1; stroke-width: 2px; fill: rgb(127, 127, 127); fill-opacity: 0.6; stroke: rgb(127, 127, 127); stroke-opacity: 1;"/></g></g></g><rect class="legendtoggle" x="0" y="-9.5" width="53" height="19" style="fill: rgb(0, 0, 0); fill-opacity: 0;"/></g><g class="traces" transform="translate(0.2,89.9)" style="opacity: 1;"><text class="legendtext" text-anchor="start" x="40" y="4.680000000000001" style="font-family: 'Open Sans', verdana, arial, sans-serif; font-size: 12px; fill: rgb(64, 64, 64); fill-opacity: 1; white-space: pre;">y4</text><g class="layers" style="opacity: 1;"><g class="legendfill"/><g class="legendlines"/><g class="legendsymbols"><g class="legendpoints"><path class="scatterpts" transform="translate(20,0)" d="M5,0A5,5 0 1,1 0,-5A5,5 0 0,1 5,0Z" style="opacity: 1; stroke-width: 2px; fill: rgb(0, 0, 0); fill-opacity: 0.6; stroke: rgb(0, 0, 0); stroke-opacity: 1;"/></g></g></g><rect class="legendtoggle" x="0" y="-9.5" width="53" height="19" style="fill: rgb(0, 0, 0); fill-opacity: 0;"/></g></g></g><rect class="scrollbar" rx="20" ry="3" width="0" height="0" x="0" y="0" style="fill: rgb(128, 139, 164); fill-opacity: 1;"/></g><g class="g-gtitle"><text class="gtitle" x="349" y="50" text-anchor="middle" dy="0em" style="font-family: 'Open Sans', verdana, arial, sans-serif; font-size: 16px; fill: rgb(64, 64, 64); opacity: 1; font-weight: normal; white-space: pre;">Correlation</text></g><g class="g-polartitle"><text class="polartitle" transform="" x="483.5" y="479.70625" text-anchor="middle" style="font-family: 'Open Sans', verdana, arial, sans-serif; font-size: 16px; fill: rgb(64, 64, 64); opacity: 1; font-weight: normal; white-space: pre;"><tspan class="line" dy="0em" x="483.5" y="479.70625"></tspan><tspan class="line" dy="1.3em" x="483.5" y="479.70625">Standard Deviation</tspan></text></g></g></svg>